<svg width="586" height="886" viewBox="0 0 586 886" fill="none" xmlns="http://www.w3.org/2000/svg">
<g clip-path="url(#clip0_318_1131)">
<path opacity="0.1" d="M0 856.17L88 838.94V713.51L0.349976 726.65L0.039978 724.59L87.99 711.4V582.94L0.279968 590.84L0.0900269 588.77L87.98 580.86V449.42L1.14001 451.57L1.09003 449.49L87.98 447.34V320.14L1.08002 317.16L1.15002 315.08L87.98 318.06V187.54L1.01001 178.43L1.22998 176.36L87.99 185.45V53.38L0.969971 40.11L1.27997 38.05L87.99 51.27V0H90.07V51.59L168.41 63.54V0H170.49V63.86L241.35 74.66V0H243.43V74.98L306.81 84.64V0H308.89V84.96L372.27 94.62V0H374.35V94.94L430.25 103.46V0H432.33V103.78L486.36 112.02V0H488.44V112.34L540.6 120.29V0H542.68V120.61L565.17 124.04L564.86 126.1L542.68 122.72V233.08L573.54 236.31L573.32 238.38L542.67 235.17V333.67L583.75 335.08L583.68 337.16L542.67 335.75V436.08L575.27 435.27L575.32 437.35L542.67 438.16V539.9L576.14 536.89L576.33 538.96L542.68 541.99V643.22L583.57 637.09L583.88 639.15L542.68 645.33V749.92L585.41 741.56L585.81 743.6L542.7 752.04V885.41H540.62V752.45L488.46 762.66V885.41H486.38V763.07L432.35 773.65V885.41H430.27V774.05L374.37 784.99V885.4H372.29V785.4L308.91 797.81V885.41H306.83V798.22L243.45 810.63V885.41H241.37V811.04L170.51 824.91V885.41H168.43V825.32L90.09 840.66V885.41H88.01V841.06L0.409973 858.21L0.0100098 856.17H0ZM90.08 711.09L168.42 699.34V575.69L90.08 582.74V711.08V711.09ZM308.91 441.86L372.29 440.29V329.89L308.91 327.71V441.85V441.86ZM306.82 327.65L243.44 325.47V443.48L306.82 441.91V327.64V327.65ZM374.37 440.24L430.27 438.86V331.89L374.37 329.97V440.25V440.24ZM374.37 442.33V555.07L430.27 550.04V440.95L374.37 442.33ZM372.29 442.38L308.91 443.95V560.96L372.29 555.25V442.38ZM306.82 444L243.44 445.57V566.85L306.82 561.14V443.99V444ZM241.36 445.62L170.5 447.37V573.42L241.36 567.04V445.62ZM241.36 443.53V325.4L170.5 322.97V445.29L241.36 443.54V443.53ZM241.36 323.32V203.6L170.5 196.18V320.89L241.36 323.32ZM243.45 323.39L306.83 325.57V210.46L243.45 203.82V323.39ZM308.91 325.64L372.29 327.82V217.32L308.91 210.68V325.64ZM374.37 327.88L430.27 329.8V223.38L374.37 217.52V327.87V327.88ZM432.35 329.87L486.38 331.73V229.27L432.35 223.61V329.88V329.87ZM432.35 331.96V438.81L486.38 437.47V333.81L432.35 331.95V331.96ZM432.35 440.89V549.84L486.38 544.98V439.56L432.35 440.9V440.89ZM432.35 551.93V659.77L486.38 651.67V547.07L432.35 551.93ZM430.27 552.12L374.37 557.15V668.46L430.27 660.08V552.12ZM372.29 557.34L308.91 563.05V678.28L372.29 668.78V557.34ZM306.82 563.24L243.44 568.95V688.1L306.82 678.6V563.24ZM241.36 569.13L170.5 575.51V699.03L241.36 688.4V569.12V569.13ZM90.08 580.66L168.42 573.61V447.43L90.08 449.37V580.67V580.66ZM90.08 447.28L168.42 445.34V322.9L90.08 320.21V447.28ZM90.08 318.12L168.42 320.81V195.95L90.08 187.74V318.12ZM90.08 53.7V185.65L168.42 193.86V65.64L90.08 53.69V53.7ZM170.5 65.96V194.07L241.36 201.49V76.76L170.5 65.96ZM243.45 77.08V201.71L306.83 208.35V86.74L243.45 77.08ZM308.91 87.07V208.58L372.29 215.22V96.73L308.91 87.07ZM374.37 97.05V215.44L430.27 221.3V105.58L374.37 97.06V97.05ZM432.35 105.89V221.51L486.38 227.17V114.12L432.35 105.88V105.89ZM540.62 122.4L488.46 114.45V227.4L540.62 232.86V122.4ZM540.62 234.95L488.46 229.49V331.81L540.62 333.6V234.96V234.95ZM540.62 335.68L488.46 333.89V437.42L540.62 436.13V335.68ZM540.62 438.21L488.46 439.5V544.79L540.62 540.09V438.21ZM540.62 542.18L488.46 546.88V651.36L540.62 643.54V542.19V542.18ZM540.62 750.33V645.64L488.46 653.46V760.54L540.62 750.33ZM486.38 760.95V653.78L432.35 661.88V771.53L486.38 760.95ZM430.27 771.93V662.19L374.37 670.57V782.88L430.27 771.94V771.93ZM372.29 783.28V670.88L308.91 680.38V795.69L372.29 783.28ZM306.82 796.1V680.7L243.44 690.2V808.51L306.82 796.1ZM241.36 808.92V690.52L170.5 701.15V822.8L241.36 808.93V808.92ZM168.42 823.2V701.45L90.08 713.2V838.54L168.42 823.2Z" fill="url(#paint0_radial_318_1131)"/>
</g>
<defs>
<radialGradient id="paint0_radial_318_1131" cx="0" cy="0" r="1" gradientUnits="userSpaceOnUse" gradientTransform="translate(292.9 442.71) rotate(180) scale(375.36 375.36)">
<stop stop-color="white"/>
<stop offset="1" stop-color="white" stop-opacity="0"/>
</radialGradient>
<clipPath id="clip0_318_1131">
<rect width="585.81" height="885.41" fill="white" transform="matrix(-1 0 0 1 585.81 0)"/>
</clipPath>
</defs>
</svg>
