<svg width="586" height="886" viewBox="0 0 586 886" fill="none" xmlns="http://www.w3.org/2000/svg">
<g clip-path="url(#clip0_318_1141)">
<path opacity="0.1" d="M585.81 856.17L497.81 838.94V713.51L585.46 726.65L585.77 724.59L497.82 711.4V582.94L585.53 590.84L585.72 588.77L497.83 580.86V449.42L584.67 451.57L584.72 449.49L497.83 447.34V320.14L584.73 317.16L584.66 315.08L497.83 318.06V187.54L584.8 178.43L584.58 176.36L497.82 185.45V53.38L584.84 40.11L584.53 38.05L497.82 51.27V0H495.74V51.59L417.4 63.54V0H415.32V63.86L344.46 74.66V0H342.38V74.98L279 84.64V0H276.92V84.96L213.54 94.62V0H211.46V94.94L155.56 103.46V0H153.48V103.78L99.45 112.02V0H97.37V112.34L45.21 120.29V0H43.13V120.61L20.64 124.04L20.95 126.1L43.13 122.72V233.08L12.27 236.31L12.49 238.38L43.14 235.17V333.67L2.06 335.08L2.13 337.16L43.14 335.75V436.08L10.54 435.27L10.49 437.35L43.14 438.16V539.9L9.67 536.89L9.48 538.96L43.13 541.99V643.22L2.24 637.09L1.93 639.15L43.13 645.33V749.92L0.4 741.56L0 743.6L43.11 752.04V885.41H45.19V752.45L97.35 762.66V885.41H99.43V763.07L153.46 773.65V885.41H155.54V774.05L211.44 784.99V885.4H213.52V785.4L276.9 797.81V885.41H278.98V798.22L342.36 810.63V885.41H344.44V811.04L415.3 824.91V885.41H417.38V825.32L495.72 840.66V885.41H497.8V841.06L585.4 858.21L585.8 856.17H585.81ZM495.73 711.09L417.39 699.34V575.69L495.73 582.74V711.08V711.09ZM276.9 441.86L213.52 440.29V329.89L276.9 327.71V441.85V441.86ZM278.99 327.65L342.37 325.47V443.48L278.99 441.91V327.64V327.65ZM211.44 440.24L155.54 438.86V331.89L211.44 329.97V440.25V440.24ZM211.44 442.33V555.07L155.54 550.04V440.95L211.44 442.33ZM213.52 442.38L276.9 443.95V560.96L213.52 555.25V442.38ZM278.99 444L342.37 445.57V566.85L278.99 561.14V443.99V444ZM344.45 445.62L415.31 447.37V573.42L344.45 567.04V445.62ZM344.45 443.53V325.4L415.31 322.97V445.29L344.45 443.54V443.53ZM344.45 323.32V203.6L415.31 196.18V320.89L344.45 323.32ZM342.36 323.39L278.98 325.57V210.46L342.36 203.82V323.39ZM276.9 325.64L213.52 327.82V217.32L276.9 210.68V325.64ZM211.44 327.88L155.54 329.8V223.38L211.44 217.52V327.87V327.88ZM153.46 329.87L99.43 331.73V229.27L153.46 223.61V329.88V329.87ZM153.46 331.96V438.81L99.43 437.47V333.81L153.46 331.95V331.96ZM153.46 440.89V549.84L99.43 544.98V439.56L153.46 440.9V440.89ZM153.46 551.93V659.77L99.43 651.67V547.07L153.46 551.93ZM155.54 552.12L211.44 557.15V668.46L155.54 660.08V552.12ZM213.52 557.34L276.9 563.05V678.28L213.52 668.78V557.34ZM278.99 563.24L342.37 568.95V688.1L278.99 678.6V563.24ZM344.45 569.13L415.31 575.51V699.03L344.45 688.4V569.12V569.13ZM495.73 580.66L417.39 573.61V447.43L495.73 449.37V580.67V580.66ZM495.73 447.28L417.39 445.34V322.9L495.73 320.21V447.28ZM495.73 318.12L417.39 320.81V195.95L495.73 187.74V318.12ZM495.73 53.7V185.65L417.39 193.86V65.64L495.73 53.69V53.7ZM415.31 65.96V194.07L344.45 201.49V76.76L415.31 65.96ZM342.36 77.08V201.71L278.98 208.35V86.74L342.36 77.08ZM276.9 87.07V208.58L213.52 215.22V96.73L276.9 87.07ZM211.44 97.05V215.44L155.54 221.3V105.58L211.44 97.06V97.05ZM153.46 105.89V221.51L99.43 227.17V114.12L153.46 105.88V105.89ZM45.19 122.4L97.35 114.45V227.4L45.19 232.86V122.4ZM45.19 234.95L97.35 229.49V331.81L45.19 333.6V234.96V234.95ZM45.19 335.68L97.35 333.89V437.42L45.19 436.13V335.68ZM45.19 438.21L97.35 439.5V544.79L45.19 540.09V438.21ZM45.19 542.18L97.35 546.88V651.36L45.19 643.54V542.19V542.18ZM45.19 750.33V645.64L97.35 653.46V760.54L45.19 750.33ZM99.43 760.95V653.78L153.46 661.88V771.53L99.43 760.95ZM155.54 771.93V662.19L211.44 670.57V782.88L155.54 771.94V771.93ZM213.52 783.28V670.88L276.9 680.38V795.69L213.52 783.28ZM278.99 796.1V680.7L342.37 690.2V808.51L278.99 796.1ZM344.45 808.92V690.52L415.31 701.15V822.8L344.45 808.93V808.92ZM417.39 823.2V701.45L495.73 713.2V838.54L417.39 823.2Z" fill="url(#paint0_radial_318_1141)"/>
</g>
<defs>
<radialGradient id="paint0_radial_318_1141" cx="0" cy="0" r="1" gradientUnits="userSpaceOnUse" gradientTransform="translate(292.91 442.71) scale(375.36 375.36)">
<stop stop-color="white"/>
<stop offset="1" stop-color="white" stop-opacity="0"/>
</radialGradient>
<clipPath id="clip0_318_1141">
<rect width="585.81" height="885.41" fill="white"/>
</clipPath>
</defs>
</svg>
